<svg viewBox="0 0 200 200" xmlns="http://www.w3.org/2000/svg">
  <defs>
    <radialGradient id="bg" cx="50%" cy="38%" r="78%">
      <stop offset="0" stop-color="#FFB070"/>
      <stop offset="0.55" stop-color="#E8593A"/>
      <stop offset="1" stop-color="#9A2614"/>
    </radialGradient>
    <linearGradient id="piece" x1="0" y1="0" x2="0" y2="1">
      <stop offset="0" stop-color="#FFE680"/>
      <stop offset="0.5" stop-color="#F0AE2A"/>
      <stop offset="1" stop-color="#C8801A"/>
    </linearGradient>
    <clipPath id="rounded">
      <rect width="200" height="200" rx="44"/>
    </clipPath>
    <path id="pp" d="M 39 61 L 67 61 A 22 22 0 0 0 111 61 L 139 61 L 139 89 A 22 22 0 0 1 139 133 L 139 161 L 111 161 A 22 22 0 0 0 67 161 L 39 161 L 39 133 A 22 22 0 0 0 39 89 Z"/>
    <clipPath id="ppc"><use href="#pp"/></clipPath>
  </defs>
  <g clip-path="url(#rounded)">
    <rect width="200" height="200" fill="url(#bg)"/>
    <ellipse cx="100" cy="186" rx="72" ry="9" fill="#3A0F02" opacity="0.45"/>
    <g transform="rotate(-8 100 100)">
      <use href="#pp" fill="#3A0F02" opacity="0.55" transform="translate(4 6)"/>
      <use href="#pp" fill="url(#piece)" stroke="#5A2A05" stroke-width="5" stroke-linejoin="round"/>
      <g clip-path="url(#ppc)">
        <ellipse cx="89" cy="50" rx="55" ry="22" fill="#FFFFFF" opacity="0.55"/>
      </g>
    </g>
    <path d="M 32 36 l 2 -10 l 2 10 l 10 2 l -10 2 l -2 10 l -2 -10 l -10 -2 z" fill="#FFFFFF" opacity="0.95"/>
    <circle cx="170" cy="42" r="3" fill="#FFFFFF" opacity="0.9"/>
    <circle cx="42" cy="170" r="2" fill="#FFFFFF" opacity="0.8"/>
  </g>
</svg>
