<svg viewBox="0 0 200 200" xmlns="http://www.w3.org/2000/svg">
  <defs>
    <linearGradient id="bg" x1="0" y1="0" x2="200" y2="200" gradientUnits="userSpaceOnUse">
      <stop offset="0" stop-color="#FF8C5A"/>
      <stop offset="0.55" stop-color="#E8593A"/>
      <stop offset="1" stop-color="#C13E25"/>
    </linearGradient>
    <linearGradient id="piece" x1="0" y1="40" x2="0" y2="170" gradientUnits="userSpaceOnUse">
      <stop offset="0" stop-color="#FFFFFF"/>
      <stop offset="1" stop-color="#FCEBD9"/>
    </linearGradient>
    <clipPath id="rounded">
      <rect width="200" height="200" rx="44"/>
    </clipPath>
  </defs>
  <g clip-path="url(#rounded)">
    <rect width="200" height="200" fill="url(#bg)"/>
    <ellipse cx="60" cy="-10" rx="140" ry="70" fill="#FFFFFF" opacity="0.22"/>
    <circle cx="170" cy="180" r="30" fill="#1F5C4D" opacity="0.18"/>
    <g transform="rotate(-10 100 100)">
      <path d="M 40 55 L 84 55 A 16 16 0 0 1 116 55 L 140 55 L 140 89 A 16 16 0 0 1 140 121 L 140 155 L 40 155 Z"
            fill="#1F5C4D" opacity="0.30" transform="translate(4 6)"/>
      <path d="M 40 55 L 84 55 A 16 16 0 0 1 116 55 L 140 55 L 140 89 A 16 16 0 0 1 140 121 L 140 155 L 40 155 Z"
            fill="url(#piece)"/>
      <circle cx="68" cy="92" r="7" fill="#E8B547"/>
      <circle cx="100" cy="120" r="5" fill="#3A5A7A"/>
      <circle cx="78" cy="135" r="3.5" fill="#1F5C4D"/>
    </g>
  </g>
</svg>
