<svg viewBox="0 0 200 200" xmlns="http://www.w3.org/2000/svg">
  <defs>
    <clipPath id="rounded">
      <rect width="200" height="200" rx="44" />
    </clipPath>
  </defs>
  <g clip-path="url(#rounded)">
    <!-- Top-left piece: coral -->
    <path fill="#E66B4F" d="M 0 0 l 100 0 l 0 30 c 0 4 4.4 8 8.8 8 c 11 0 11 24 0 24 c -4.4 0 -8.8 4 -8.8 8 l 0 30 l -30 0 c -4 0 -8 4.4 -8 8.8 c 0 11 -24 11 -24 0 c 0 -4.4 -4 -8.8 -8 -8.8 l -30 0 l 0 -100 Z" />
    <!-- Top-right piece: teal -->
    <path fill="#1F5C4D" d="M 100 0 l 100 0 l 0 100 l -30 0 c -4 0 -8 4.4 -8 8.8 c 0 11 -24 11 -24 0 c 0 -4.4 -4 -8.8 -8 -8.8 l -30 0 l 0 -30 c 0 -4 4.4 -8 8.8 -8 c 11 0 11 -24 0 -24 c -4.4 0 -8.8 -4 -8.8 -8 l 0 -30 Z" />
    <!-- Bottom-left piece: amber -->
    <path fill="#E8B547" d="M 0 100 l 30 0 c 4 0 8 4.4 8 8.8 c 0 11 24 11 24 0 c 0 -4.4 4 -8.8 8 -8.8 l 30 0 l 0 30 c 0 4 4.4 8 8.8 8 c 11 0 11 24 0 24 c -4.4 0 -8.8 4 -8.8 8 l 0 30 l -100 0 l 0 -100 Z" />
    <!-- Bottom-right piece: navy -->
    <path fill="#3A5A7A" d="M 100 100 l 30 0 c 4 0 8 4.4 8 8.8 c 0 11 24 11 24 0 c 0 -4.4 4 -8.8 8 -8.8 l 30 0 l 0 100 l -100 0 l 0 -30 c 0 -4 4.4 -8 8.8 -8 c 11 0 11 -24 0 -24 c -4.4 0 -8.8 -4 -8.8 -8 l 0 -30 Z" />
  </g>
</svg>
